<mxfile host="app.diagrams.net" modified="2023-12-08T06:22:48.902Z" agent="Mozilla/5.0 (Macintosh; Intel Mac OS X 10_15_7) AppleWebKit/537.36 (KHTML, like Gecko) Chrome/119.0.0.0 Safari/537.36" version="22.1.7" etag="6_fmrFvKay7vFw-KXujN" type="github">
  <diagram name="第 1 页" id="javm7t5IYvBL5TWHwW9v">
    <mxGraphModel>
      <root>
        <mxCell id="0" />
        <mxCell id="1" parent="0" />
      </root>
    </mxGraphModel>
  </diagram>
</mxfile>
